<?xml version="1.0" encoding="UTF-8"?>
<svg xmlns="http://www.w3.org/2000/svg" xmlns:xlink="http://www.w3.org/1999/xlink" viewBox="0 0 48 48" width="48px" height="48px">
<g id="surface194952030">
<path style=" stroke:none;fill-rule:nonzero;fill:rgb(100%,100%,100%);fill-opacity:1;" d="M 14 8 C 8.5 8 4 12.5 4 18 L 4 36 C 4 38.1875 5.8125 40 8 40 L 40 40 C 42.1875 40 44 38.1875 44 36 L 44 18 C 44 12.5 39.5 8 34 8 Z M 14 12 C 17.335938 12 20 14.664062 20 18 L 20 36 L 8 36 L 8 18 C 8 14.664062 10.664062 12 14 12 Z M 21.941406 12 L 34 12 C 37.335938 12 40 14.664062 40 18 L 40 36 L 24 36 L 24 22 L 32 22 L 32 26 L 36 26 L 36 18 L 24 18 C 24 15.742188 23.214844 13.679688 21.941406 12 Z M 12 18 L 12 22 L 16 22 L 16 18 Z M 12 18 "/>
</g>
</svg>
